<mxfile host="www.draw.io" modified="2019-11-28T15:57:53.965Z" agent="Mozilla/5.0 (Windows NT 10.0; Win64; x64) AppleWebKit/537.36 (KHTML, like Gecko) Chrome/78.0.3904.108 Safari/537.36" etag="73ux4YD-gQbA7kDPOgDz" version="12.3.3" type="github" pages="1">
  <diagram id="_Y_Ghutb2y4u3eCPrAWP" name="Page-1">
    <mxGraphModel dx="3335" dy="2774" grid="1" gridSize="10" guides="1" tooltips="1" connect="1" arrows="1" fold="1" page="1" pageScale="1" pageWidth="827" pageHeight="1169" math="0" shadow="0">
      <root>
        <mxCell id="0"/>
        <mxCell id="1" parent="0"/>
        <mxCell id="5S6gnpby86TTOAzf-ZQi-1" value="Start" style="ellipse;whiteSpace=wrap;html=1;" parent="1" vertex="1">
          <mxGeometry x="-2370" y="-2270" width="120" height="80" as="geometry"/>
        </mxCell>
        <mxCell id="5S6gnpby86TTOAzf-ZQi-2" value="Start" style="ellipse;whiteSpace=wrap;html=1;" parent="1" vertex="1">
          <mxGeometry x="-2370" y="-2270" width="120" height="80" as="geometry"/>
        </mxCell>
        <mxCell id="5S6gnpby86TTOAzf-ZQi-3" value="" style="endArrow=classic;html=1;exitX=0.5;exitY=1;exitDx=0;exitDy=0;" parent="1" source="5S6gnpby86TTOAzf-ZQi-2" edge="1">
          <mxGeometry width="50" height="50" relative="1" as="geometry">
            <mxPoint x="-2310" y="-2080" as="sourcePoint"/>
            <mxPoint x="-2310" y="-2140" as="targetPoint"/>
          </mxGeometry>
        </mxCell>
        <mxCell id="5S6gnpby86TTOAzf-ZQi-4" value="Get file of coordinates" style="rounded=0;whiteSpace=wrap;html=1;" parent="1" vertex="1">
          <mxGeometry x="-2370" y="-2140" width="120" height="60" as="geometry"/>
        </mxCell>
        <mxCell id="5S6gnpby86TTOAzf-ZQi-7" value="Wait for button press and release" style="rounded=0;whiteSpace=wrap;html=1;" parent="1" vertex="1">
          <mxGeometry x="-2370" y="-2040" width="120" height="60" as="geometry"/>
        </mxCell>
        <mxCell id="5S6gnpby86TTOAzf-ZQi-8" value="" style="endArrow=classic;html=1;" parent="1" edge="1">
          <mxGeometry width="50" height="50" relative="1" as="geometry">
            <mxPoint x="-2310" y="-2078" as="sourcePoint"/>
            <mxPoint x="-2310" y="-2040" as="targetPoint"/>
          </mxGeometry>
        </mxCell>
        <mxCell id="5S6gnpby86TTOAzf-ZQi-11" value="" style="endArrow=classic;html=1;exitX=1;exitY=0.5;exitDx=0;exitDy=0;" parent="1" source="5S6gnpby86TTOAzf-ZQi-7" edge="1">
          <mxGeometry width="50" height="50" relative="1" as="geometry">
            <mxPoint x="-2240" y="-1980" as="sourcePoint"/>
            <mxPoint x="-2200" y="-2010" as="targetPoint"/>
          </mxGeometry>
        </mxCell>
        <mxCell id="5S6gnpby86TTOAzf-ZQi-12" value="Draw Cartesian&lt;br&gt;Plane" style="rounded=0;whiteSpace=wrap;html=1;" parent="1" vertex="1">
          <mxGeometry x="-2200" y="-2040" width="130" height="60" as="geometry"/>
        </mxCell>
        <mxCell id="5S6gnpby86TTOAzf-ZQi-15" value="" style="endArrow=none;html=1;" parent="1" edge="1">
          <mxGeometry width="50" height="50" relative="1" as="geometry">
            <mxPoint x="-2190" y="-1980" as="sourcePoint"/>
            <mxPoint x="-2190" y="-2040" as="targetPoint"/>
          </mxGeometry>
        </mxCell>
        <mxCell id="5S6gnpby86TTOAzf-ZQi-16" value="" style="endArrow=none;html=1;" parent="1" edge="1">
          <mxGeometry width="50" height="50" relative="1" as="geometry">
            <mxPoint x="-2080" y="-1980" as="sourcePoint"/>
            <mxPoint x="-2080" y="-2040" as="targetPoint"/>
          </mxGeometry>
        </mxCell>
        <mxCell id="5S6gnpby86TTOAzf-ZQi-17" value="Coordinates printed &amp;lt; 20" style="rhombus;whiteSpace=wrap;html=1;" parent="1" vertex="1">
          <mxGeometry x="-2030" y="-2070" width="150" height="120" as="geometry"/>
        </mxCell>
        <mxCell id="5S6gnpby86TTOAzf-ZQi-18" value="" style="endArrow=classic;html=1;exitX=1;exitY=0.5;exitDx=0;exitDy=0;entryX=0;entryY=0.5;entryDx=0;entryDy=0;" parent="1" source="5S6gnpby86TTOAzf-ZQi-12" target="5S6gnpby86TTOAzf-ZQi-17" edge="1">
          <mxGeometry width="50" height="50" relative="1" as="geometry">
            <mxPoint x="-2080" y="-1990" as="sourcePoint"/>
            <mxPoint x="-2030" y="-2040" as="targetPoint"/>
          </mxGeometry>
        </mxCell>
        <mxCell id="5S6gnpby86TTOAzf-ZQi-21" value="" style="endArrow=classic;html=1;exitX=0.5;exitY=1;exitDx=0;exitDy=0;" parent="1" source="5S6gnpby86TTOAzf-ZQi-17" edge="1">
          <mxGeometry width="50" height="50" relative="1" as="geometry">
            <mxPoint x="-1970" y="-1900" as="sourcePoint"/>
            <mxPoint x="-1955" y="-1900" as="targetPoint"/>
          </mxGeometry>
        </mxCell>
        <mxCell id="5S6gnpby86TTOAzf-ZQi-23" value="" style="endArrow=classic;html=1;exitX=0.5;exitY=0;exitDx=0;exitDy=0;" parent="1" source="5S6gnpby86TTOAzf-ZQi-17" edge="1">
          <mxGeometry width="50" height="50" relative="1" as="geometry">
            <mxPoint x="-1980" y="-2070" as="sourcePoint"/>
            <mxPoint x="-1955" y="-2240" as="targetPoint"/>
          </mxGeometry>
        </mxCell>
        <mxCell id="5S6gnpby86TTOAzf-ZQi-24" value="Display message" style="rounded=0;whiteSpace=wrap;html=1;" parent="1" vertex="1">
          <mxGeometry x="-2010" y="-1900" width="120" height="60" as="geometry"/>
        </mxCell>
        <mxCell id="5S6gnpby86TTOAzf-ZQi-25" value="" style="endArrow=classic;html=1;exitX=0.5;exitY=1;exitDx=0;exitDy=0;" parent="1" source="5S6gnpby86TTOAzf-ZQi-24" edge="1">
          <mxGeometry width="50" height="50" relative="1" as="geometry">
            <mxPoint x="-1970" y="-1780" as="sourcePoint"/>
            <mxPoint x="-1950" y="-1800" as="targetPoint"/>
          </mxGeometry>
        </mxCell>
        <mxCell id="5S6gnpby86TTOAzf-ZQi-26" value="End" style="ellipse;whiteSpace=wrap;html=1;" parent="1" vertex="1">
          <mxGeometry x="-2010" y="-1800" width="120" height="80" as="geometry"/>
        </mxCell>
        <mxCell id="5S6gnpby86TTOAzf-ZQi-27" value="False" style="text;html=1;resizable=0;points=[];autosize=1;align=left;verticalAlign=top;spacingTop=-4;" parent="1" vertex="1">
          <mxGeometry x="-1950" y="-1940" width="40" height="20" as="geometry"/>
        </mxCell>
        <mxCell id="5S6gnpby86TTOAzf-ZQi-33" value="Drive to next coordinate&amp;nbsp;" style="shape=process;whiteSpace=wrap;html=1;backgroundOutline=1;" parent="1" vertex="1">
          <mxGeometry x="-2020" y="-2310" width="130" height="70" as="geometry"/>
        </mxCell>
        <mxCell id="5S6gnpby86TTOAzf-ZQi-39" value="" style="endArrow=classic;html=1;entryX=1;entryY=0.5;entryDx=0;entryDy=0;exitX=1;exitY=0.5;exitDx=0;exitDy=0;" parent="1" source="5S6gnpby86TTOAzf-ZQi-33" target="5S6gnpby86TTOAzf-ZQi-17" edge="1">
          <mxGeometry width="50" height="50" relative="1" as="geometry">
            <mxPoint x="-1780" y="-2280" as="sourcePoint"/>
            <mxPoint x="-1820" y="-2020" as="targetPoint"/>
            <Array as="points">
              <mxPoint x="-1790" y="-2275"/>
              <mxPoint x="-1790" y="-2010"/>
            </Array>
          </mxGeometry>
        </mxCell>
        <mxCell id="DCq1CoEzK7meBEJqXv5S-1" value="&lt;h1&gt;Driving to Next Coordinate&amp;nbsp;&lt;/h1&gt;" style="text;html=1;resizable=0;points=[];autosize=1;align=left;verticalAlign=top;spacingTop=-4;" parent="1" vertex="1">
          <mxGeometry x="-2410" y="-1700" width="330" height="50" as="geometry"/>
        </mxCell>
        <mxCell id="DCq1CoEzK7meBEJqXv5S-4" value="&lt;h1&gt;Main Program&lt;/h1&gt;" style="text;html=1;" parent="1" vertex="1">
          <mxGeometry x="-2370" y="-2325" width="170" height="30" as="geometry"/>
        </mxCell>
        <mxCell id="DCq1CoEzK7meBEJqXv5S-6" value="Start" style="ellipse;whiteSpace=wrap;html=1;" parent="1" vertex="1">
          <mxGeometry x="-2380" y="-1620" width="120" height="80" as="geometry"/>
        </mxCell>
        <mxCell id="DCq1CoEzK7meBEJqXv5S-7" value="Calculate x and y distance from previous point to next point" style="rounded=0;whiteSpace=wrap;html=1;" parent="1" vertex="1">
          <mxGeometry x="-2380" y="-1500" width="120" height="60" as="geometry"/>
        </mxCell>
        <mxCell id="DCq1CoEzK7meBEJqXv5S-13" value="" style="endArrow=classic;html=1;exitX=0.5;exitY=1;exitDx=0;exitDy=0;entryX=0.5;entryY=0;entryDx=0;entryDy=0;" parent="1" source="DCq1CoEzK7meBEJqXv5S-6" target="DCq1CoEzK7meBEJqXv5S-7" edge="1">
          <mxGeometry width="50" height="50" relative="1" as="geometry">
            <mxPoint x="-2340" y="-1500" as="sourcePoint"/>
            <mxPoint x="-2290" y="-1550" as="targetPoint"/>
          </mxGeometry>
        </mxCell>
        <mxCell id="DCq1CoEzK7meBEJqXv5S-14" value="Calculate motor speed needed to travel in the x and y direction" style="rounded=0;whiteSpace=wrap;html=1;" parent="1" vertex="1">
          <mxGeometry x="-2380" y="-1370" width="120" height="60" as="geometry"/>
        </mxCell>
        <mxCell id="DCq1CoEzK7meBEJqXv5S-15" value="" style="endArrow=classic;html=1;exitX=0.5;exitY=1;exitDx=0;exitDy=0;entryX=0.5;entryY=0;entryDx=0;entryDy=0;" parent="1" source="DCq1CoEzK7meBEJqXv5S-7" target="DCq1CoEzK7meBEJqXv5S-14" edge="1">
          <mxGeometry width="50" height="50" relative="1" as="geometry">
            <mxPoint x="-2340" y="-1380" as="sourcePoint"/>
            <mxPoint x="-2290" y="-1430" as="targetPoint"/>
          </mxGeometry>
        </mxCell>
        <mxCell id="DCq1CoEzK7meBEJqXv5S-20" value="NOTE: The motor speed will be determined&amp;nbsp;&lt;br&gt;based off of experiments run with the motor.&amp;nbsp;&lt;br&gt;There should be a certain formula to relate the&amp;nbsp;&lt;br&gt;motor speed in RobotC with the speed of the robot" style="text;html=1;resizable=0;points=[];autosize=1;align=left;verticalAlign=top;spacingTop=-4;" parent="1" vertex="1">
          <mxGeometry x="-2250" y="-1370" width="280" height="60" as="geometry"/>
        </mxCell>
        <mxCell id="DCq1CoEzK7meBEJqXv5S-24" style="edgeStyle=orthogonalEdgeStyle;rounded=0;orthogonalLoop=1;jettySize=auto;html=1;entryX=0;entryY=0.5;entryDx=0;entryDy=0;" parent="1" source="DCq1CoEzK7meBEJqXv5S-21" target="DCq1CoEzK7meBEJqXv5S-23" edge="1">
          <mxGeometry relative="1" as="geometry"/>
        </mxCell>
        <mxCell id="DCq1CoEzK7meBEJqXv5S-21" value="Start timer&amp;nbsp;" style="rounded=0;whiteSpace=wrap;html=1;" parent="1" vertex="1">
          <mxGeometry x="-2375" y="-1260" width="110" height="60" as="geometry"/>
        </mxCell>
        <mxCell id="DCq1CoEzK7meBEJqXv5S-22" value="" style="endArrow=classic;html=1;exitX=0.5;exitY=1;exitDx=0;exitDy=0;entryX=0.5;entryY=0;entryDx=0;entryDy=0;" parent="1" source="DCq1CoEzK7meBEJqXv5S-14" target="DCq1CoEzK7meBEJqXv5S-21" edge="1">
          <mxGeometry width="50" height="50" relative="1" as="geometry">
            <mxPoint x="-2350" y="-1260" as="sourcePoint"/>
            <mxPoint x="-2300" y="-1310" as="targetPoint"/>
            <Array as="points">
              <mxPoint x="-2320" y="-1270"/>
            </Array>
          </mxGeometry>
        </mxCell>
        <mxCell id="DCq1CoEzK7meBEJqXv5S-27" style="edgeStyle=orthogonalEdgeStyle;rounded=0;orthogonalLoop=1;jettySize=auto;html=1;entryX=0;entryY=0.5;entryDx=0;entryDy=0;" parent="1" source="DCq1CoEzK7meBEJqXv5S-23" target="DCq1CoEzK7meBEJqXv5S-26" edge="1">
          <mxGeometry relative="1" as="geometry"/>
        </mxCell>
        <mxCell id="DCq1CoEzK7meBEJqXv5S-23" value="Set arm and roller speed to certain power" style="rounded=0;whiteSpace=wrap;html=1;" parent="1" vertex="1">
          <mxGeometry x="-2230" y="-1260" width="120" height="60" as="geometry"/>
        </mxCell>
        <mxCell id="DCq1CoEzK7meBEJqXv5S-39" value="" style="edgeStyle=orthogonalEdgeStyle;rounded=0;orthogonalLoop=1;jettySize=auto;html=1;" parent="1" source="DCq1CoEzK7meBEJqXv5S-26" target="DCq1CoEzK7meBEJqXv5S-33" edge="1">
          <mxGeometry relative="1" as="geometry"/>
        </mxCell>
        <mxCell id="DCq1CoEzK7meBEJqXv5S-26" value="Has 3 &lt;br&gt;seconds &lt;br&gt;passed?" style="rhombus;whiteSpace=wrap;html=1;" parent="1" vertex="1">
          <mxGeometry x="-2030" y="-1290" width="100" height="80" as="geometry"/>
        </mxCell>
        <mxCell id="DCq1CoEzK7meBEJqXv5S-29" style="edgeStyle=orthogonalEdgeStyle;rounded=0;orthogonalLoop=1;jettySize=auto;html=1;exitX=0.5;exitY=1;exitDx=0;exitDy=0;entryX=0;entryY=1;entryDx=0;entryDy=0;" parent="1" source="DCq1CoEzK7meBEJqXv5S-26" target="DCq1CoEzK7meBEJqXv5S-26" edge="1">
          <mxGeometry relative="1" as="geometry">
            <Array as="points">
              <mxPoint x="-1980" y="-1180"/>
              <mxPoint x="-2005" y="-1180"/>
            </Array>
          </mxGeometry>
        </mxCell>
        <mxCell id="DCq1CoEzK7meBEJqXv5S-30" value="False" style="text;html=1;resizable=0;points=[];autosize=1;align=left;verticalAlign=top;spacingTop=-4;" parent="1" vertex="1">
          <mxGeometry x="-1962" y="-1195" width="40" height="20" as="geometry"/>
        </mxCell>
        <mxCell id="DCq1CoEzK7meBEJqXv5S-33" value="Set both motor speeds to 0 and reset timer" style="rounded=0;whiteSpace=wrap;html=1;" parent="1" vertex="1">
          <mxGeometry x="-1922" y="-1420" width="120" height="60" as="geometry"/>
        </mxCell>
        <mxCell id="DCq1CoEzK7meBEJqXv5S-35" value="End" style="ellipse;whiteSpace=wrap;html=1;" parent="1" vertex="1">
          <mxGeometry x="-1802" y="-1320" width="120" height="80" as="geometry"/>
        </mxCell>
        <mxCell id="DCq1CoEzK7meBEJqXv5S-43" value="" style="endArrow=classic;html=1;exitX=1;exitY=0.5;exitDx=0;exitDy=0;entryX=0.5;entryY=0;entryDx=0;entryDy=0;" parent="1" source="DCq1CoEzK7meBEJqXv5S-33" target="DCq1CoEzK7meBEJqXv5S-35" edge="1">
          <mxGeometry width="50" height="50" relative="1" as="geometry">
            <mxPoint x="-1760" y="-1360" as="sourcePoint"/>
            <mxPoint x="-1730" y="-1390" as="targetPoint"/>
            <Array as="points">
              <mxPoint x="-1742" y="-1390"/>
            </Array>
          </mxGeometry>
        </mxCell>
      </root>
    </mxGraphModel>
  </diagram>
</mxfile>
